<svg viewBox="0 0 2153 400" xmlns="http://www.w3.org/2000/svg"><g><g><g><g><g><line x1="58" y1="378" x2="53" y2="378" style="visibility: inherit;" fill="rgb(0, 0, 0)" stroke="rgb(204, 204, 204)" stroke-width="1px"></line><line x1="58" y1="330.75" x2="53" y2="330.75" style="visibility: inherit;" fill="rgb(0, 0, 0)" stroke="rgb(204, 204, 204)" stroke-width="1px"></line><line x1="58" y1="283.5" x2="53" y2="283.5" style="visibility: inherit;" fill="rgb(0, 0, 0)" stroke="rgb(204, 204, 204)" stroke-width="1px"></line><line x1="58" y1="236.25" x2="53" y2="236.25" style="visibility: inherit;" fill="rgb(0, 0, 0)" stroke="rgb(204, 204, 204)" stroke-width="1px"></line><line x1="58" y1="189" x2="53" y2="189" style="visibility: inherit;" fill="rgb(0, 0, 0)" stroke="rgb(204, 204, 204)" stroke-width="1px"></line><line x1="58" y1="141.75" x2="53" y2="141.75" style="visibility: inherit;" fill="rgb(0, 0, 0)" stroke="rgb(204, 204, 204)" stroke-width="1px"></line><line x1="58" y1="94.5" x2="53" y2="94.5" style="visibility: inherit;" fill="rgb(0, 0, 0)" stroke="rgb(204, 204, 204)" stroke-width="1px"></line><line x1="58" y1="47.25" x2="53" y2="47.25" style="visibility: inherit;" fill="rgb(0, 0, 0)" stroke="rgb(204, 204, 204)" stroke-width="1px"></line><line x1="58" y1="0" x2="53" y2="0" style="visibility: inherit;" fill="rgb(0, 0, 0)" stroke="rgb(204, 204, 204)" stroke-width="1px"></line></g><g transform="translate(48, 0)"><text x="0" y="378" dx="0em" dy="0.3em" style="text-anchor: end; visibility: hidden; font-family: &quot;Helvetica Neue&quot;, sans-serif; font-size: 12px; font-weight: 200;" fill="rgb(50, 49, 63)" stroke="none" stroke-width="1px">-400</text><text x="0" y="330.75" dx="0em" dy="0.3em" style="text-anchor: end; visibility: inherit; font-family: &quot;Helvetica Neue&quot;, sans-serif; font-size: 12px; font-weight: 200;" fill="rgb(50, 49, 63)" stroke="none" stroke-width="1px">-300</text><text x="0" y="283.5" dx="0em" dy="0.3em" style="text-anchor: end; visibility: inherit; font-family: &quot;Helvetica Neue&quot;, sans-serif; font-size: 12px; font-weight: 200;" fill="rgb(50, 49, 63)" stroke="none" stroke-width="1px">-200</text><text x="0" y="236.25" dx="0em" dy="0.3em" style="text-anchor: end; visibility: inherit; font-family: &quot;Helvetica Neue&quot;, sans-serif; font-size: 12px; font-weight: 200;" fill="rgb(50, 49, 63)" stroke="none" stroke-width="1px">-100</text><text x="0" y="189" dx="0em" dy="0.3em" style="text-anchor: end; visibility: inherit; font-family: &quot;Helvetica Neue&quot;, sans-serif; font-size: 12px; font-weight: 200;" fill="rgb(50, 49, 63)" stroke="none" stroke-width="1px">0</text><text x="0" y="141.75" dx="0em" dy="0.3em" style="text-anchor: end; visibility: inherit; font-family: &quot;Helvetica Neue&quot;, sans-serif; font-size: 12px; font-weight: 200;" fill="rgb(50, 49, 63)" stroke="none" stroke-width="1px">100</text><text x="0" y="94.5" dx="0em" dy="0.3em" style="text-anchor: end; visibility: inherit; font-family: &quot;Helvetica Neue&quot;, sans-serif; font-size: 12px; font-weight: 200;" fill="rgb(50, 49, 63)" stroke="none" stroke-width="1px">200</text><text x="0" y="47.25" dx="0em" dy="0.3em" style="text-anchor: end; visibility: inherit; font-family: &quot;Helvetica Neue&quot;, sans-serif; font-size: 12px; font-weight: 200;" fill="rgb(50, 49, 63)" stroke="none" stroke-width="1px">300</text><text x="0" y="0" dx="0em" dy="0.3em" style="text-anchor: end; visibility: hidden; font-family: &quot;Helvetica Neue&quot;, sans-serif; font-size: 12px; font-weight: 200;" fill="rgb(50, 49, 63)" stroke="none" stroke-width="1px">400</text></g><line x1="58" y1="0" x2="58" y2="378" fill="rgb(0, 0, 0)" stroke="rgb(204, 204, 204)" stroke-width="1px"></line></g></g><g transform="translate(58, 0)" clip-path="url(#clip_0)"><clipPath id="clip_0"><rect width="2095" height="378"></rect></clipPath><g><g><g><line x1="0" y1="0" x2="0" y2="378" fill="rgb(0, 0, 0)" stroke="rgb(60, 60, 60)" stroke-width="1px" opacity="0.25"></line><line x1="190.45454545454547" y1="0" x2="190.45454545454547" y2="378" fill="rgb(0, 0, 0)" stroke="rgb(60, 60, 60)" stroke-width="1px" opacity="0.25"></line><line x1="380.90909090909093" y1="0" x2="380.90909090909093" y2="378" fill="rgb(0, 0, 0)" stroke="rgb(60, 60, 60)" stroke-width="1px" opacity="0.25"></line><line x1="571.3636363636364" y1="0" x2="571.3636363636364" y2="378" fill="rgb(0, 0, 0)" stroke="rgb(60, 60, 60)" stroke-width="1px" opacity="0.25"></line><line x1="761.8181818181819" y1="0" x2="761.8181818181819" y2="378" fill="rgb(0, 0, 0)" stroke="rgb(60, 60, 60)" stroke-width="1px" opacity="0.25"></line><line x1="952.2727272727273" y1="0" x2="952.2727272727273" y2="378" fill="rgb(0, 0, 0)" stroke="rgb(60, 60, 60)" stroke-width="1px" opacity="0.25"></line><line x1="1142.7272727272727" y1="0" x2="1142.7272727272727" y2="378" fill="rgb(0, 0, 0)" stroke="rgb(60, 60, 60)" stroke-width="1px" opacity="0.25"></line><line x1="1333.1818181818182" y1="0" x2="1333.1818181818182" y2="378" fill="rgb(0, 0, 0)" stroke="rgb(60, 60, 60)" stroke-width="1px" opacity="0.25"></line><line x1="1523.6363636363637" y1="0" x2="1523.6363636363637" y2="378" fill="rgb(0, 0, 0)" stroke="rgb(60, 60, 60)" stroke-width="1px" opacity="0.25"></line><line x1="1714.0909090909092" y1="0" x2="1714.0909090909092" y2="378" fill="rgb(0, 0, 0)" stroke="rgb(60, 60, 60)" stroke-width="1px" opacity="0.25"></line><line x1="1904.5454545454545" y1="0" x2="1904.5454545454545" y2="378" fill="rgb(0, 0, 0)" stroke="rgb(60, 60, 60)" stroke-width="1px" opacity="0.25"></line><line x1="2095" y1="0" x2="2095" y2="378" fill="rgb(0, 0, 0)" stroke="rgb(60, 60, 60)" stroke-width="1px" opacity="0.25"></line></g><g><line x1="0" y1="378" x2="2095" y2="378" fill="rgb(0, 0, 0)" stroke="rgb(60, 60, 60)" stroke-width="1px" opacity="0.25"></line><line x1="0" y1="330.75" x2="2095" y2="330.75" fill="rgb(0, 0, 0)" stroke="rgb(60, 60, 60)" stroke-width="1px" opacity="0.25"></line><line x1="0" y1="283.5" x2="2095" y2="283.5" fill="rgb(0, 0, 0)" stroke="rgb(60, 60, 60)" stroke-width="1px" opacity="0.25"></line><line x1="0" y1="236.25" x2="2095" y2="236.25" fill="rgb(0, 0, 0)" stroke="rgb(60, 60, 60)" stroke-width="1px" opacity="0.25"></line><line x1="0" y1="189" x2="2095" y2="189" fill="rgb(0, 0, 0)" stroke="rgb(60, 60, 60)" stroke-width="1px" opacity="0.25"></line><line x1="0" y1="141.75" x2="2095" y2="141.75" fill="rgb(0, 0, 0)" stroke="rgb(60, 60, 60)" stroke-width="1px" opacity="0.25"></line><line x1="0" y1="94.5" x2="2095" y2="94.5" fill="rgb(0, 0, 0)" stroke="rgb(60, 60, 60)" stroke-width="1px" opacity="0.25"></line><line x1="0" y1="47.25" x2="2095" y2="47.25" fill="rgb(0, 0, 0)" stroke="rgb(60, 60, 60)" stroke-width="1px" opacity="0.25"></line><line x1="0" y1="0" x2="2095" y2="0" fill="rgb(0, 0, 0)" stroke="rgb(60, 60, 60)" stroke-width="1px" opacity="0.25"></line></g></g></g><g><g><line x1="0" y1="189" x2="2095" y2="189" fill="rgb(0, 0, 0)" stroke="rgb(153, 153, 153)" stroke-width="1.5px"></line></g></g><g><g><line x1="190.45454545454547" y1="0" x2="190.45454545454547" y2="378" fill="rgb(0, 0, 0)" stroke="rgb(153, 153, 153)" stroke-width="1.5px"></line></g></g><g><g><g><g><g><path stroke="rgb(255, 112, 67)" stroke-width="2px" d="M194.64454545454547,319.5210882568359L195.2159090909091,310.3480158233643L201.31045454545455,299.6763580781156L201.88181818181818,293.4108547978735L206.26227272727274,290.99068073670935L206.4527272727273,302.03368573897774L207.7859090909091,298.49617955872804L211.02363636363634,292.73096289315845L217.68954545454545,301.4405723245614L223.02227272727274,304.14663585579484L223.7840909090909,301.35810949547533L231.59272727272727,298.63864716114006L235.78272727272727,296.6201502668486L240.925,297.39203857589405L247.78136363636364,299.6079758620538L255.59,294.4819936221957L260.35136363636366,290.9308029185871L267.20772727272725,291.58324145131644L277.30181818181813,289.0608553802685L288.34818181818184,288.84057265896047L295.395,291.89373641138786L295.5854545454546,298.50858571002516L295.7759090909091,294.0713197906223L297.8709090909091,294.74625351148086L301.1086363636364,300.10008984872957L302.6322727272727,296.6055961791217L310.25045454545455,300.69991359857084L316.34499999999997,299.22630091513855L316.91636363636366,300.7622540708817L317.86863636363637,299.7631867234423L323.9631818181818,296.60245298515446L331.96227272727276,293.1652951549622L332.53363636363633,295.59838135228665L345.86545454545455,299.7404779682243L350.8172727272728,299.21594197393557L352.34090909090907,301.68261363524385L357.48318181818183,300.0669527138906L358.81636363636363,296.5930144490088L359.3877272727273,295.2594980546172L362.24454545454546,294.33762480434865L362.8159090909091,291.4383445524598L367.76772727272726,289.63531787178425L376.14772727272725,287.9697544638655L382.6231818181818,291.2389314514772L388.9081818181818,287.5068007281292L391.57454545454544,289.9638167322281L394.6218181818182,284.9849686698684L398.24045454545455,289.5174833602771L406.43,283.55518012064044L410.81045454545455,281.5169141570366L412.3340909090909,286.7689271338871L419.3809090909091,284.4639343840398L421.095,278.9683060398702L422.0472727272727,283.6335082780943L425.47545454545457,284.5537757026564L428.14181818181817,283.41896728540996L430.99863636363636,280.32753829581065L434.23636363636365,281.9106060837289L439.5690909090909,281.6555793025642L452.7104545454545,284.50498455633493L460.51909090909095,284.41085438617597L461.4713636363636,287.3989270677787L462.0427272727273,290.6167414248734L472.51772727272726,288.7696400536483L494.8009090909091,288.03881120581315L498.9909090909091,288.2374864745395L499.5622727272727,288.4040681805548L503.1809090909091,287.54846376637494L506.22818181818184,286.6996063342816L514.4177272727272,284.1743075696425L518.2268181818182,284.1154398340425L522.4168181818181,284.4572646261719L525.2736363636363,288.2545873329398L530.035,282.39845255584737L530.6063636363637,278.8585912515516L533.2727272727273,287.5642225107139L535.5581818181819,282.5493156341143L536.1295454545455,284.4808071887213L546.0331818181818,281.3286008952554L547.9377272727272,278.4516136039565L550.0327272727272,282.0251532883265L553.08,279.41211253327765L559.5554545454546,279.8494949849761L560.6981818181818,277.4252627068335L564.6977272727272,276.9715428017845L567.745,280.6156639524947L576.3154545454546,273.4402816015652L592.6945454545454,274.10909556515514L608.6927272727273,267.9977684491306L626.9763636363635,266.6307500744316L630.975909090909,264.95904550958613L647.5454545454545,263.5086358060086L650.9736363636364,263.07219996165225L660.4963636363636,265.11508206864903L668.1145454545455,261.38614329797423L671.5427272727272,261.99699383366277L675.3518181818182,264.74836500778787L682.0177272727273,259.5621009496555L683.7318181818182,255.40746247031416L684.1127272727273,254.11038525086417L684.684090909091,256.2129200052989L685.6363636363636,258.9416867134564L689.255,267.56640412281854L695.3495454545455,273.73819842968385L702.7772727272727,277.79398200115145L707.3481818181818,274.86808720026505L710.5859090909091,276.6483963735831L712.3000000000001,274.27151456383183L722.9654545454546,270.14116504292826L727.3459090909091,271.47706091088423L731.155,271.5257698643164L736.2972727272728,270.16751471606534L738.3922727272727,273.0077435066822L746.9627272727273,276.3450823648468L756.675909090909,275.1051905242703L757.4377272727273,273.8666516735101L768.1031818181818,277.8502579517494L771.9122727272728,279.26258423030504L776.1022727272727,273.5832151565045L781.2445454545455,272.08290767492883L787.3390909090909,266.9402203826883L794.7668181818182,272.7601717280042L814.1931818181818,271.06489652837223L814.574090909091,273.08355888045804L819.145,275.7415479655506L819.9068181818182,275.774994472275L822.5731818181818,272.4675040385109L822.7636363636364,268.53440472630984L825.049090909091,266.4063478046204L831.3340909090908,270.608306660766L843.5231818181818,267.640648202116L844.2850000000001,268.47371751113815L847.5227272727273,264.8299867701442L849.4272727272727,265.5039296958926L851.9031818181818,266.8929480120679L855.7122727272728,263.6711515233098L855.9027272727272,262.42645104107237L870.7581818181818,264.79618099455206L878.3763636363636,260.47544079201253L879.9,259.5531941603372L888.4704545454545,258.235967386097L902.7545454545455,259.1800626362536L903.5163636363636,263.4675299736898L903.7068181818181,272.31323188393446L905.2304545454546,270.72603400660194L908.2777272727274,271.79379644456895L908.4681818181818,271.278360409836L913.0390909090909,267.2569402312783L917.4195454545454,265.3456692820823L923.3236363636364,268.9895969589894L924.8472727272726,277.6800944952791L926.1804545454545,281.9144998447997L927.1327272727273,282.64970166327214L946.7495454545455,283.96841977151286L952.2727272727273,285.8869093131169L956.2722727272727,287.37073607169293L964.0809090909091,286.1557325944747L973.4131818181818,285.49151770195374L975.6986363636363,263.3092676483989L983.3168181818182,263.32588565363926L991.5063636363636,264.649619906676L992.8395454545454,270.31543679106716L999.1245454545455,274.5226608975151L1004.8381818181819,277.12233216029404L1005.5999999999999,284.02748691049106L1019.3127272727273,278.6490222779567L1034.3586363636364,282.47380025985484L1037.405909090909,282.0884848125918L1041.7863636363636,282.8720441331452L1045.9763636363637,260.64055092820536L1051.8804545454548,258.15538674550265L1060.6413636363636,256.07820233295905L1071.4972727272727,235.49118317282597L1074.354090909091,221.99130178775383L1079.4963636363636,232.74333945451133L1083.8768181818182,215.44472444938242L1086.7336363636364,217.38668189241534L1092.6377272727273,204.6213665475118L1098.5418181818181,187.97642791318455L1101.589090909091,175.2050605451905L1118.73,161.83043911015102L1120.825,146.549812737479L1131.8713636363636,139.3447799424674L1145.584090909091,129.17491768556252L1148.6313636363636,118.36894630386763L1151.869090909091,108.23557362251574L1153.0118181818182,127.5181429960654L1153.3927272727274,117.16950479518079L1153.7736363636363,111.23809820186386L1155.4877272727274,103.90595811324073L1159.1063636363635,97.840095613014L1161.5822727272728,90.05575829542431L1164.2486363636365,85.03663156278753L1165.5818181818183,85.26698627867131L1170.7240909090908,81.39763974273876L1171.4859090909092,79.03919040978872L1173.9618181818182,76.33274396903488L1174.1522727272727,73.8119215886735L1181.1990909090907,94.04763563081906L1188.0554545454545,112.54141598032078L1204.0536363636363,106.90065887730327L1208.8149999999998,101.25917214131726L1216.8140909090907,96.717350421981L1217.0045454545455,90.43738326017683L1223.6704545454545,83.77595163304414L1229.5745454545456,77.02096599479495L1234.9072727272728,70.67589521867484L1237.1927272727273,70.8026077407606L1238.525909090909,65.8090772891112L1241.1922727272727,87.57816956555519L1242.5254545454545,84.43287770138198L1247.0963636363638,83.09347775598906L1249.7627272727275,100.81930391850545L1251.476818181818,96.76632529296853L1252.0481818181818,88.66044956791416L1256.4286363636365,80.36313784062884L1257.380909090909,76.65969144962389L1265.3799999999999,72.73673181810102L1272.4268181818181,71.88623528721092L1273.5695454545455,67.43214206206278L1284.8063636363638,68.09862345451029L1288.425,65.92678090718721L1290.139090909091,62.96363763683985L1291.4722727272729,60.99559333868228L1302.1377272727273,61.20706688751517L1311.850909090909,59.463600890822875L1321.3736363636363,58.662022906199866L1350.3227272727272,54.92710304036876L1351.4654545454543,50.997162549738846L1354.8936363636362,50.29138627429711L1356.4172727272728,73.7164894993046L1360.9881818181818,67.53940268301358L1368.7968181818183,62.088735020489366L1369.9395454545454,58.000375419117006L1370.510909090909,58.53920050233694L1372.4154545454544,55.818919543551715L1373.1772727272726,54.957411889416164L1373.558181818182,52.19166605413761L1374.5104545454544,52.02544628710086L1395.0795454545455,51.92355271277205L1396.6031818181816,48.26669843328182L1396.7936363636363,46.02079307815484L1398.5077272727274,44.158489908630884L1399.8409090909092,43.46669015787535L1428.9804545454544,40.64543998057144L1433.7418181818182,42.79324142625177L1436.4081818181817,40.75259655912913L1452.0254545454545,39.35869365369825L1453.3586363636364,62.65288696008389L1463.4527272727273,59.464029210414026L1470.3090909090909,58.2839037094127L1479.6413636363636,59.650272482304786L1499.8295454545455,57.48102166992061L1500.02,56.71012618322459L1506.4954545454545,52.9201417173598L1515.6372727272728,50.87626656081767L1516.3990909090908,47.19070377039111L1517.9227272727271,47.92597740275261L1525.540909090909,71.48337966251046L1525.921818181818,67.70814346474833L1527.2549999999999,70.065701650167L1528.016818181818,63.72836325089088L1536.7777272727271,65.12917066741079L1539.2536363636364,64.17849914510248L1539.825,60.17434586297446L1543.0627272727272,58.069026129580834L1543.4436363636362,54.61165456825643L1547.0622727272728,53.460324148661584L1558.68,50.58017418008308L1560.775,49.085097748707426L1566.679090909091,46.89983353352818L1567.4409090909091,48.81857911541766L1568.0122727272728,46.707776242327384L1582.8677272727273,69.94340550134115L1588.01,69.56395103671719L1590.2954545454545,66.16451568798851L1594.295,65.44346340355236L1594.8663636363638,62.00528978505923L1596.1995454545454,62.41364258908516L1602.8654545454544,57.80966790231946L1616.3877272727273,54.267113625819945L1627.6245454545453,51.92378631932894L1633.338181818182,51.79672506257913L1636.7663636363636,51.380408574387616L1643.2418181818182,51.22062414089902L1647.8127272727272,71.15903714490156L1650.479090909091,72.09330459587773L1660.7636363636364,66.83931923669252L1679.9995454545453,63.46355926431704L1684.1895454545454,61.49405326006536L1700.1877272727272,56.71314019022316L1701.520909090909,58.55143126611057L1702.4731818181817,55.244226509250325L1717.1381818181817,54.71221163420421L1720.9472727272728,49.937626602070225L1746.0872727272726,49.487597149565886L1746.4681818181818,50.20740268882071L1747.0395454545455,51.00647150959924L1755.8004545454546,48.92435934704258L1767.418181818182,49.562954944625915L1779.2263636363637,52.76864994393776L1781.130909090909,49.16505902791306L1782.4640909090908,49.81648141644257L1783.6068181818182,46.5166567077207L1786.273181818182,70.21499103694885L1788.5586363636364,70.75173418941853L1789.891818181818,70.16680710073791L1791.225,67.56626816007332L1794.2722727272728,64.4977786807969L1801.3190909090908,78.88910281676846L1806.651818181818,73.46189186828258L1817.1268181818182,69.08306122485027L1824.745,69.82927168485423L1825.125909090909,88.65398795661542L1827.9827272727273,82.43221426013605L1828.935,102.29148909190445L1831.9822727272729,93.39209574454264L1833.6963636363637,85.44912020939495L1838.4577272727272,82.39817569486416L1856.3604545454543,77.71362358253106L1856.7413636363638,72.3999937377057L1873.1204545454545,71.62002163139118L1877.500909090909,67.79775150102796L1878.2627272727273,62.68264916434072L1880.3577272727273,61.50212403214732L1880.548181818182,57.017622650355975L1881.6909090909091,54.31944229449999L1887.595,77.23749806505003L1893.3086363636364,75.67532388873298L1899.0222727272726,76.43529902625744L1902.0695454545455,71.18377586038702L1902.8313636363634,68.87645706646259L1921.8768181818182,67.90951119654733L1928.9236363636364,65.14409338682907L1933.1136363636363,62.49512568327805L1936.1609090909092,60.71326009523585L1949.4927272727273,59.330980365619496L1954.0636363636363,57.38755708796867L1959.2059090909092,55.38713463112492L1977.8704545454545,55.02732859293923L1978.6322727272727,77.87459573364532L1979.7749999999999,96.5318225921655L1988.155,115.29743819595552L2004.3436363636365,110.54317682112321L2004.7245454545455,104.36683908896202L2007.9622727272726,98.31715646943354L2011.0095454545456,94.759525035747L2013.4854545454546,92.74618213223943L2025.2936363636366,86.27050493616639L2027.96,81.63228421549894L2039.1968181818181,78.56632113666149L2044.3390909090908,77.69892551896703L2044.9104545454545,73.16154983566162L2045.4818181818182,69.42802862589917L2049.4813636363638,66.01440480231071L2054.2427272727273,61.38983637713335L2056.909090909091,61.47872660264022L2062.6227272727274,59.67568379924876L2063.7654545454548,55.55580700104997L2064.336818181818,56.126370198955215L2075.192727272727,56.70271173283169L2081.4777272727274,56.67572112290304L2083.1918181818182,56.0772673806689L2084.334545454545,53.321573021752386L2085.858181818182,54.17770646054396L2095.5713636363635,50.50152542172833" style="fill: none;" fill="none"></path></g></g></g></g><g opacity="0.2"><g><g><g><path stroke="rgb(255, 112, 67)" stroke-width="2px" d="M194.64454545454547,319.5210882568359L195.2159090909091,302.09225063323976L201.31045454545455,281.4278233337402L201.88181818181818,278.1292922973633L206.26227272727274,283.5L206.4527272727273,342.73367454528807L207.7859090909091,283.57840633392334L211.02363636363634,265.66138023376465L217.68954545454545,346.0842457580566L223.02227272727274,319.06574752807614L223.7840909090909,285.0120634460449L231.59272727272727,281.8440510177612L235.78272727272727,283.5844264984131L240.925,302.57320049285886L247.78136363636364,314.98899307250974L255.59,257.846702041626L260.35136363636366,264.8924718475342L267.20772727272725,296.4759130096436L277.30181818181813,269.7667502975464L288.34818181818184,287.1258405303955L295.395,316.03146926879884L295.5854545454546,351.52811828613284L295.7759090909091,258.06864784240724L297.8709090909091,300.28228637695315L301.1086363636364,344.44110855102537L302.6322727272727,267.41297412872314L310.25045454545455,335.1679355621338L316.34499999999997,286.7349984741211L316.91636363636366,313.8623787689209L317.86863636363637,291.19509681701663L323.9631818181818,269.3617338180542L331.96227272727276,263.41108600616457L332.53363636363633,316.74425674438476L345.86545454545455,335.86731285095215L350.8172727272728,294.6264175415039L352.34090909090907,323.32695693969725L357.48318181818183,285.8535887145996L358.81636363636363,265.9614944458008L359.3877272727273,283.47685661315916L362.24454545454546,286.1770265579224L362.8159090909091,265.7305075836182L367.76772727272726,273.6239453887939L376.14772727272725,273.1591526412964L382.6231818181818,320.3444881439209L388.9081818181818,254.24336322784424L391.57454545454544,311.88395805358886L394.6218181818182,240.5273232650757L398.24045454545455,330.02172592163083L406.43,230.23587730407715L410.81045454545455,263.27756813049314L412.3340909090909,333.793434677124L419.3809090909091,263.8152228927612L421.095,229.71412731170653L422.0472727272727,325.4625796508789L425.47545454545457,292.8081764602661L428.14181818181817,273.23677310943606L430.99863636363636,252.58088218688965L434.23636363636365,296.1230953216553L439.5690909090909,279.36543033599855L452.7104545454545,310.09842773437504L460.51909090909095,283.5652052307129L461.4713636363636,314.2480874633789L462.0427272727273,319.5349166107178L472.51772727272726,272.16750537872315L494.8009090909091,281.4691065216065L498.9909090909091,290.0236665344238L499.5622727272727,289.9018717575073L503.1809090909091,279.8546426010132L506.22818181818184,279.06579917907715L514.4177272727272,261.4624416732788L518.2268181818182,283.5859621810913L522.4168181818181,287.5319528961181L525.2736363636363,322.41314643859863L530.035,229.7173140335083L530.6063636363637,247.01293659210205L533.2727272727273,365.8859149932861L535.5581818181819,237.43018295288087L536.1295454545455,301.8590215301514L546.0331818181818,252.9663962173462L547.9377272727272,252.56501346588135L550.0327272727272,314.17998390197755L553.08,255.89936988830567L559.5554545454546,283.7852404403686L560.6981818181818,255.61064712524416L564.6977272727272,272.8886489868164L567.745,313.40852325439454L576.3154545454546,208.8693384075165L592.6945454545454,280.1277922439575L608.6927272727273,213.00099712371826L626.9763636363635,254.32862606048582L630.975909090909,249.91485054016113L647.5454545454545,250.45584342956542L650.9736363636364,259.1445197296143L660.4963636363636,283.5L668.1145454545455,227.82737171173096L671.5427272727272,267.4944013595581L675.3518181818182,289.5097031021118L682.0177272727273,212.8874250984192L683.7318181818182,218.0169423007965L684.1127272727273,242.43703479766847L684.684090909091,275.135230178833L685.6363636363636,283.5L689.255,345.18719078063964L695.3495454545455,329.28327163696287L702.7772727272727,314.29539802551267L707.3481818181818,248.53544700622558L710.5859090909091,292.6709527587891L712.3000000000001,252.87985004425047L722.9654545454546,232.96844438552856L727.3459090909091,283.5L731.155,271.96414638519286L736.2972727272728,257.943320274353L738.3922727272727,298.5696108627319L746.9627272727273,306.3809292984009L756.675909090909,263.9462317657471L757.4377272727273,262.7198629760742L768.1031818181818,313.7025379943848L771.9122727272728,291.9734644317627L776.1022727272727,222.4690972709656L781.2445454545455,258.58018878936764L787.3390909090909,220.65618421554566L794.7668181818182,325.1395816040039L814.1931818181818,255.80745964050294L814.574090909091,291.25147727966305L819.145,299.66339904785156L819.9068181818182,276.0760124588013L822.5731818181818,242.70014122009277L822.7636363636364,233.1365655899048L825.049090909091,247.25386213302613L831.3340909090908,308.4258890533447L843.5231818181818,240.93175214767456L844.2850000000001,275.971333694458L847.5227272727273,232.0364400100708L849.4272727272727,271.56941104888915L851.9031818181818,279.39410362243655L855.7122727272728,234.67500240325927L855.9027272727272,251.22415340423584L870.7581818181818,286.12373908996585L878.3763636363636,221.58879781723022L879.9,251.2529780960083L888.4704545454545,246.38093107223511L902.7545454545455,267.676916885376L903.5163636363636,302.054723739624L903.7068181818181,351.92452629089354L905.2304545454546,256.4412567901611L908.2777272727274,281.40365615844723L908.4681818181818,266.6394370651245L913.0390909090909,231.06416542053222L917.4195454545454,248.14423364639282L923.3236363636364,301.78494106292726L924.8472727272726,355.8945616149902L926.1804545454545,320.02414329528807L927.1327272727273,289.2665172958374L946.7495454545455,295.8368815612793L952.2727272727273,303.1533136367798L956.2722727272727,300.725175819397L964.0809090909091,275.22070209503175L973.4131818181818,279.51358406066896L975.6986363636363,63.66902893066407L983.3168181818182,263.47544769287106L991.5063636363636,276.5632276153565L992.8395454545454,321.3077865600586L999.1245454545455,312.38767639160153L1004.8381818181819,300.51937271118163L1005.5999999999999,346.17387771606445L1019.3127272727273,230.2428419494629L1034.3586363636364,316.8968012237549L1037.405909090909,278.62064586639406L1041.7863636363636,289.92407787323L1045.9763636363637,60.557115783691415L1051.8804545454548,235.78890947341918L1060.6413636363636,237.38354290008544L1071.4972727272727,50.208013229370124L1074.354090909091,100.4923707962036L1079.4963636363636,329.5116773986816L1083.8768181818182,59.75719093322755L1086.7336363636364,234.86429872512818L1092.6377272727273,89.73352935791019L1098.5418181818181,38.17198127746582L1101.589090909091,60.26275497436524L1118.73,41.45884689331058L1120.825,9.024176101684589L1131.8713636363636,74.49948509216307L1145.584090909091,37.6461577606201L1148.6313636363636,21.115204238891636L1151.869090909091,17.03521980285643L1153.0118181818182,301.06126682281496L1153.3927272727274,24.031761245727523L1153.7736363636363,57.85543899536134L1155.4877272727274,37.91669746398924L1159.1063636363635,43.247333221435554L1161.5822727272728,19.99672256469728L1164.2486363636365,39.86449104309082L1165.5818181818183,87.3401787185669L1170.7240909090908,46.573520965576165L1171.4859090909092,57.813146438598665L1173.9618181818182,51.974726028442376L1174.1522727272727,51.124520187377925L1181.1990909090907,276.16906185150145L1188.0554545454545,278.98543899536133L1204.0536363636363,56.1338449859619L1208.8149999999998,50.48579154968263L1216.8140909090907,55.840954971313465L1217.0045454545455,33.91767883300781L1223.6704545454545,23.823067016601556L1229.5745454545456,16.22609527587889L1234.9072727272728,13.570258255004887L1237.1927272727273,71.94302043914792L1238.525909090909,20.867303237915053L1241.1922727272727,283.5L1242.5254545454545,56.12525093078614L1247.0963636363638,71.03887825012208L1249.7627272727275,260.35173934936523L1251.476818181818,60.289517669677764L1252.0481818181818,15.707568054199214L1256.4286363636365,5.687332305908171L1257.380909090909,43.32867393493649L1265.3799999999999,37.4300951385498L1272.4268181818181,64.23176651000978L1273.5695454545455,27.3453030395508L1284.8063636363638,74.09695598602292L1288.425,46.380197982788104L1290.139090909091,36.29534820556643L1291.4722727272729,43.283194656372075L1302.1377272727273,63.110328826904265L1311.850909090909,43.77240692138673L1321.3736363636363,51.44782104492191L1350.3227272727272,21.312824249267578L1351.4654545454543,15.627698135375965L1354.8936363636362,43.93939979553221L1356.4172727272728,284.54241851806637L1360.9881818181818,11.945621337890657L1368.7968181818183,13.032726058959952L1369.9395454545454,21.20513900756839L1370.510909090909,63.38862625122067L1372.4154545454544,31.33639091491699L1373.1772727272726,47.20384300231933L1373.558181818182,27.29995353698729L1374.5104545454544,50.529468383789094L1395.0795454545455,51.006510543823254L1396.6031818181816,15.355009918212886L1396.7936363636363,25.80764488220217L1398.5077272727274,27.39776138305666L1399.8409090909092,37.24049240112305L1428.9804545454544,15.254188385009797L1433.7418181818182,62.12345443725587L1436.4081818181817,22.38679275512692L1452.0254545454545,26.813567504882826L1453.3586363636364,272.3006267166138L1463.4527272727273,30.76430946350098L1470.3090909090909,47.66277420043946L1479.6413636363636,71.94759143829344L1499.8295454545455,37.95776435852048L1500.02,49.772066802978486L1506.4954545454545,18.810281524658194L1515.6372727272728,32.48139015197751L1516.3990909090908,14.0206386566162L1517.9227272727271,54.54344009399415L1525.540909090909,283.5L1525.921818181818,33.73101768493649L1527.2549999999999,91.2837253189087L1528.016818181818,6.69231765747071L1536.7777272727271,77.73643741607663L1539.2536363636364,55.62245544433597L1539.825,24.136966323852505L1543.0627272727272,39.12114852905273L1543.4436363636362,23.495310516357392L1547.0622727272728,43.098350372314485L1558.68,24.658824462890607L1560.775,35.62940986633299L1566.679090909091,27.23245559692384L1567.4409090909091,66.08728935241697L1568.0122727272728,27.71055038452147L1582.8677272727273,279.0640688323974L1588.01,66.14886085510255L1590.2954545454545,35.56959754943847L1594.295,58.95399284362793L1594.8663636363638,31.061727218627937L1596.1995454545454,66.08881782531739L1602.8654545454544,16.37389572143553L1616.3877272727273,22.384125137329136L1627.6245454545453,30.833840560913075L1633.338181818182,50.65317375183105L1636.7663636363636,47.63356018066406L1643.2418181818182,49.78256423950194L1647.8127272727272,250.6047541809082L1650.479090909091,80.5017116546631L1660.7636363636364,19.553451004028318L1679.9995454545453,33.08171951293946L1684.1895454545454,43.76849922180179L1700.1877272727272,13.684922561645521L1701.520909090909,75.09605094909665L1702.4731818181817,25.479383697509775L1717.1381818181817,49.92407775878905L1720.9472727272728,6.9663613128662405L1746.0872727272726,45.43733207702638L1746.4681818181818,56.68565254211427L1747.0395454545455,58.19809089660646L1755.8004545454546,30.1853498840332L1767.418181818182,55.310315322875965L1779.2263636363637,81.61990493774414L1781.130909090909,16.73274078369144L1782.4640909090908,55.679282913208L1783.6068181818182,16.81823432922363L1786.273181818182,283.5L1788.5586363636364,75.5824225616455L1789.891818181818,64.90246330261232L1791.225,44.16141769409177L1794.2722727272728,36.88137336730955L1801.3190909090908,208.41102004051208L1806.651818181818,24.616993331909214L1817.1268181818182,29.673585433959943L1824.745,76.54516582489015L1825.125909090909,258.0764344024658L1827.9827272727273,26.436250991821282L1828.935,281.0249625778198L1831.9822727272729,13.29755561828614L1833.6963636363637,13.962340393066427L1838.4577272727272,54.939675064086885L1856.3604545454543,35.552654571533196L1856.7413636363638,24.577325134277373L1873.1204545454545,64.60027267456053L1877.500909090909,33.39732032775879L1878.2627272727273,16.64672813415524L1880.3577272727273,50.87739784240722L1880.548181818182,16.6571102142334L1881.6909090909091,30.035819091796895L1887.595,283.5L1893.3086363636364,61.61575630187991L1899.0222727272726,83.27507526397704L1902.0695454545455,23.920067367553713L1902.8313636363634,48.11058792114261L1921.8768181818182,59.20699836730955L1928.9236363636364,40.2553330993652L1933.1136363636363,38.65441635131839L1936.1609090909092,44.676469802856445L1949.4927272727273,46.89046279907228L1954.0636363636363,39.89674758911133L1959.2059090909092,37.38333251953128L1977.8704545454545,51.78907424926757L1978.6322727272727,283.5L1979.7749999999999,264.44686431884764L1988.155,284.1879786300659L2004.3436363636365,67.75482444763185L2004.7245454545455,48.77979949951174L2007.9622727272726,43.870012893676744L2011.0095454545456,62.74084213256839L2013.4854545454546,74.6260960006714L2025.2936363636366,27.98941017150878L2027.96,39.888297729492194L2039.1968181818181,50.972653427124044L2044.3390909090908,69.89236495971682L2044.9104545454545,32.32516868591307L2045.4818181818182,35.826337738037125L2049.4813636363638,35.29179039001468L2054.2427272727273,19.768720550537125L2056.909090909091,62.278738632202135L2062.6227272727274,43.44829856872559L2063.7654545454548,18.47691581726076L2064.336818181818,61.261438980102525L2075.192727272727,61.88978553771972L2081.4777272727274,56.43280563354489L2083.1918181818182,50.69118370056151L2084.334545454545,28.520323791503927L2085.858181818182,61.88290740966795L2095.5713636363635,17.41589607238768" style="fill: none;" fill="none"></path></g></g></g></g></g></g><g transform="translate(58, 378)" clip-path="url(#clip_1)"><clipPath id="clip_1"><rect width="2095" height="22"></rect></clipPath><g><g><line x1="0" y1="0" x2="0" y2="5" style="visibility: inherit;" fill="rgb(0, 0, 0)" stroke="rgb(204, 204, 204)" stroke-width="1px"></line><line x1="190.45454545454547" y1="0" x2="190.45454545454547" y2="5" style="visibility: inherit;" fill="rgb(0, 0, 0)" stroke="rgb(204, 204, 204)" stroke-width="1px"></line><line x1="380.90909090909093" y1="0" x2="380.90909090909093" y2="5" style="visibility: inherit;" fill="rgb(0, 0, 0)" stroke="rgb(204, 204, 204)" stroke-width="1px"></line><line x1="571.3636363636364" y1="0" x2="571.3636363636364" y2="5" style="visibility: inherit;" fill="rgb(0, 0, 0)" stroke="rgb(204, 204, 204)" stroke-width="1px"></line><line x1="761.8181818181819" y1="0" x2="761.8181818181819" y2="5" style="visibility: inherit;" fill="rgb(0, 0, 0)" stroke="rgb(204, 204, 204)" stroke-width="1px"></line><line x1="952.2727272727273" y1="0" x2="952.2727272727273" y2="5" style="visibility: inherit;" fill="rgb(0, 0, 0)" stroke="rgb(204, 204, 204)" stroke-width="1px"></line><line x1="1142.7272727272727" y1="0" x2="1142.7272727272727" y2="5" style="visibility: inherit;" fill="rgb(0, 0, 0)" stroke="rgb(204, 204, 204)" stroke-width="1px"></line><line x1="1333.1818181818182" y1="0" x2="1333.1818181818182" y2="5" style="visibility: inherit;" fill="rgb(0, 0, 0)" stroke="rgb(204, 204, 204)" stroke-width="1px"></line><line x1="1523.6363636363637" y1="0" x2="1523.6363636363637" y2="5" style="visibility: inherit;" fill="rgb(0, 0, 0)" stroke="rgb(204, 204, 204)" stroke-width="1px"></line><line x1="1714.0909090909092" y1="0" x2="1714.0909090909092" y2="5" style="visibility: inherit;" fill="rgb(0, 0, 0)" stroke="rgb(204, 204, 204)" stroke-width="1px"></line><line x1="1904.5454545454545" y1="0" x2="1904.5454545454545" y2="5" style="visibility: inherit;" fill="rgb(0, 0, 0)" stroke="rgb(204, 204, 204)" stroke-width="1px"></line><line x1="2095" y1="0" x2="2095" y2="5" style="visibility: inherit;" fill="rgb(0, 0, 0)" stroke="rgb(204, 204, 204)" stroke-width="1px"></line></g><g transform="translate(0, 8)"><text x="0" y="0" dx="0em" dy="0.95em" style="text-anchor: middle; visibility: hidden; font-family: &quot;Helvetica Neue&quot;, sans-serif; font-size: 12px; font-weight: 200;" fill="rgb(50, 49, 63)" stroke="none" stroke-width="1px">-1k</text><text x="190.45454545454547" y="0" dx="0em" dy="0.95em" style="text-anchor: middle; visibility: inherit; font-family: &quot;Helvetica Neue&quot;, sans-serif; font-size: 12px; font-weight: 200;" fill="rgb(50, 49, 63)" stroke="none" stroke-width="1px">0</text><text x="380.90909090909093" y="0" dx="0em" dy="0.95em" style="text-anchor: middle; visibility: inherit; font-family: &quot;Helvetica Neue&quot;, sans-serif; font-size: 12px; font-weight: 200;" fill="rgb(50, 49, 63)" stroke="none" stroke-width="1px">1k</text><text x="571.3636363636364" y="0" dx="0em" dy="0.95em" style="text-anchor: middle; visibility: inherit; font-family: &quot;Helvetica Neue&quot;, sans-serif; font-size: 12px; font-weight: 200;" fill="rgb(50, 49, 63)" stroke="none" stroke-width="1px">2k</text><text x="761.8181818181819" y="0" dx="0em" dy="0.95em" style="text-anchor: middle; visibility: inherit; font-family: &quot;Helvetica Neue&quot;, sans-serif; font-size: 12px; font-weight: 200;" fill="rgb(50, 49, 63)" stroke="none" stroke-width="1px">3k</text><text x="952.2727272727273" y="0" dx="0em" dy="0.95em" style="text-anchor: middle; visibility: inherit; font-family: &quot;Helvetica Neue&quot;, sans-serif; font-size: 12px; font-weight: 200;" fill="rgb(50, 49, 63)" stroke="none" stroke-width="1px">4k</text><text x="1142.7272727272727" y="0" dx="0em" dy="0.95em" style="text-anchor: middle; visibility: inherit; font-family: &quot;Helvetica Neue&quot;, sans-serif; font-size: 12px; font-weight: 200;" fill="rgb(50, 49, 63)" stroke="none" stroke-width="1px">5k</text><text x="1333.1818181818182" y="0" dx="0em" dy="0.95em" style="text-anchor: middle; visibility: inherit; font-family: &quot;Helvetica Neue&quot;, sans-serif; font-size: 12px; font-weight: 200;" fill="rgb(50, 49, 63)" stroke="none" stroke-width="1px">6k</text><text x="1523.6363636363637" y="0" dx="0em" dy="0.95em" style="text-anchor: middle; visibility: inherit; font-family: &quot;Helvetica Neue&quot;, sans-serif; font-size: 12px; font-weight: 200;" fill="rgb(50, 49, 63)" stroke="none" stroke-width="1px">7k</text><text x="1714.0909090909092" y="0" dx="0em" dy="0.95em" style="text-anchor: middle; visibility: inherit; font-family: &quot;Helvetica Neue&quot;, sans-serif; font-size: 12px; font-weight: 200;" fill="rgb(50, 49, 63)" stroke="none" stroke-width="1px">8k</text><text x="1904.5454545454545" y="0" dx="0em" dy="0.95em" style="text-anchor: middle; visibility: inherit; font-family: &quot;Helvetica Neue&quot;, sans-serif; font-size: 12px; font-weight: 200;" fill="rgb(50, 49, 63)" stroke="none" stroke-width="1px">9k</text><text x="2095" y="0" dx="0em" dy="0.95em" style="text-anchor: middle; visibility: hidden; font-family: &quot;Helvetica Neue&quot;, sans-serif; font-size: 12px; font-weight: 200;" fill="rgb(50, 49, 63)" stroke="none" stroke-width="1px">10k</text></g><line x1="0" y1="0" x2="2095" y2="0" fill="rgb(0, 0, 0)" stroke="rgb(204, 204, 204)" stroke-width="1px"></line></g></g></g></g></svg>